<svg width="5" height="9" viewBox="0 0 5 9" fill="none" xmlns="http://www.w3.org/2000/svg">
<path d="M0.644599 0C0.535618 0.0338001 0.446667 0.0991173 0.369346 0.186586C0.297625 0.267661 0.220304 0.343025 0.147722 0.423186C-0.042026 0.632381 -0.0493488 0.906895 0.127907 1.12728C0.151168 1.15606 0.177013 1.18278 0.202428 1.20972C1.19769 2.26507 2.19295 3.32018 3.18778 4.37598C3.31787 4.51414 3.3183 4.47783 3.18498 4.61966C2.188 5.67728 1.19101 6.73491 0.193167 7.79139C0.0699706 7.92179 -0.00885777 8.06658 0.0090186 8.25888C0.0204336 8.38198 0.0721244 8.48155 0.151383 8.56765C0.232366 8.65557 0.314425 8.74259 0.39713 8.82869C0.615738 9.05638 0.892499 9.05775 1.10895 8.82891C1.60949 8.30022 2.10831 7.76992 2.60798 7.24008C3.34178 6.46199 4.07557 5.68413 4.80915 4.90604C5.06308 4.63656 5.06372 4.35633 4.81044 4.08776C3.59291 2.7965 2.37473 1.5057 1.15806 0.213306C1.07083 0.120812 0.979081 0.0401955 0.859977 0.000228882C0.788256 9.53674e-07 0.716535 0 0.644599 0Z" fill="#C2C2C2"/>
</svg>
