<svg width="22" height="22" viewBox="0 0 22 22" fill="none" xmlns="http://www.w3.org/2000/svg">
<path d="M16.6368 21.8424C15.7535 21.8725 14.8966 21.5839 14.0545 21.2748C7.3648 18.8158 2.97845 14.1703 0.962956 7.33597C0.0899441 4.37698 2.03201 1.30418 5.05635 0.697701C5.84272 0.53984 6.58283 0.848955 6.99621 1.534C7.60343 2.53918 8.20844 3.54655 8.79436 4.56421C9.52273 5.82784 9.19673 7.15755 7.98009 7.97402C7.45438 8.32646 6.93013 8.68257 6.3978 9.02546C6.21718 9.1422 6.1812 9.25234 6.27372 9.45352C7.70769 12.5865 9.99265 14.8693 13.1102 16.3289C13.343 16.4376 13.4663 16.3899 13.5992 16.1792C13.9274 15.6593 14.2733 15.1505 14.6213 14.6439C15.4877 13.381 16.8115 13.0887 18.1251 13.867C19.0568 14.4192 19.9864 14.9743 20.9159 15.5294C21.8323 16.0764 22.1216 16.7798 21.8565 17.8114C21.2441 20.1933 19.1251 21.8424 16.6368 21.8424Z" fill="white"/>
</svg>
