<svg width="26" height="20" viewBox="0 0 26 20" fill="none" xmlns="http://www.w3.org/2000/svg">
<path d="M25.3364 12.2848C25.3364 13.0678 25.3182 13.92 24.8217 14.5255C24.3039 15.1535 23.6334 15.451 22.8322 15.4526C19.8337 15.4589 16.8351 15.4573 13.8351 15.4526C13.2259 15.451 12.6136 15.5092 12.0092 15.4164C10.772 15.2259 9.90315 14.2138 9.9 12.9593C9.89371 10.2331 9.89843 7.50534 9.89843 4.77755C9.89843 4.011 9.89371 3.24446 9.9 2.47948C9.90787 1.29896 10.6666 0.341957 11.8109 0.0523363C11.9887 0.00826362 12.1682 0.000393506 12.3508 0.000393506C15.8766 0.000393506 19.4024 -0.00118052 22.9298 0.00196753C24.0095 0.00354155 24.9225 0.686668 25.2452 1.7145C25.3044 1.90163 25.3364 2.09614 25.3364 2.29243C25.3364 5.62277 25.3364 8.95424 25.3364 12.2848ZM17.6316 3.08233C15.0628 3.0839 12.9914 5.14902 12.9882 7.70996C12.9851 10.2803 15.0691 12.3675 17.6363 12.3659C20.2083 12.3643 22.2813 10.2788 22.2718 7.70366C22.2608 5.12384 20.2099 3.08076 17.6316 3.08233Z" fill="white"/>
<path d="M15.5082 19.2209C13.037 19.2209 10.5642 19.2272 8.09302 19.2177C5.83902 19.2098 3.96435 17.7051 3.4465 15.5093C3.35678 15.1315 3.32058 14.7475 3.32215 14.3571C3.3253 13.2112 3.319 12.0669 3.32687 10.921C3.32845 10.7259 3.27651 10.6361 3.07503 10.5795C1.71665 10.1986 0.780105 9.0023 0.691959 7.5967C0.649461 6.92144 0.677793 6.24619 0.669923 5.57093C0.668349 5.40723 0.621128 5.30335 0.47317 5.21048C0.0812384 4.96808 -0.079312 4.53523 0.0371657 4.12283C0.15994 3.69155 0.520391 3.42554 0.99732 3.4161C1.15315 3.41295 1.31055 3.40822 1.46638 3.4161C1.63795 3.42554 1.70091 3.35628 1.69933 3.18629C1.69304 2.69204 1.69304 2.1978 1.69933 1.70356C1.70406 1.28015 1.84572 0.927564 2.24552 0.722941C2.87041 0.403414 3.62122 0.836271 3.64168 1.53829C3.65742 2.06558 3.65427 2.59288 3.64168 3.12018C3.63696 3.33897 3.69047 3.43813 3.92973 3.41924C4.19259 3.40035 4.45702 3.40822 4.71988 3.41767C4.88988 3.42396 4.95284 3.361 4.95127 3.18944C4.9434 2.67001 4.94654 2.15058 4.94969 1.63273C4.95284 1.06136 5.33375 0.647388 5.87837 0.611185C6.35844 0.579705 6.80074 0.962193 6.86843 1.49106C6.93611 2.02308 6.89519 2.5614 6.89046 3.09499C6.88889 3.33897 6.95342 3.44915 7.20999 3.41767C7.3485 3.40193 7.49017 3.41295 7.63025 3.4161C8.08357 3.43026 8.44245 3.70729 8.55893 4.1307C8.67226 4.54467 8.50226 4.99327 8.11348 5.21363C7.93876 5.31122 7.89784 5.42612 7.89941 5.60871C7.90728 6.24304 7.90728 6.87737 7.89941 7.5117C7.88367 8.90157 6.9188 10.1781 5.57773 10.5606C5.3432 10.6267 5.26607 10.7211 5.26922 10.9635C5.28181 12.1173 5.27079 13.2711 5.27552 14.4248C5.28181 15.8304 6.19002 16.9433 7.55785 17.2329C7.81756 17.288 8.082 17.2754 8.34643 17.2754C13.1913 17.2769 18.0361 17.2754 22.881 17.2769C23.0447 17.2769 23.2099 17.2848 23.3736 17.3053C23.8946 17.3698 24.2787 17.8121 24.2488 18.2985C24.2157 18.8226 23.8081 19.2083 23.2713 19.2193C23.1722 19.2209 23.073 19.2209 22.9754 19.2209C20.4853 19.2209 17.9968 19.2209 15.5082 19.2209Z" fill="white"/>
<path d="M17.0463 7.73529C17.0463 7.83445 17.0463 7.93361 17.0463 8.0312C17.0432 8.70961 16.6843 9.09209 16.009 9.11728C15.7383 9.12672 15.466 9.14561 15.1968 9.09524C14.6931 9.00238 14.3768 8.65766 14.3532 8.14768C14.339 7.85963 14.339 7.57159 14.3532 7.28354C14.3799 6.72634 14.7907 6.3407 15.3495 6.33283C15.5966 6.32968 15.8438 6.32811 16.0909 6.33441C16.6402 6.347 17.0337 6.74208 17.0463 7.29141C17.0495 7.4378 17.0463 7.58733 17.0463 7.73529Z" fill="white"/>
<path d="M20.9039 7.71975C20.9039 7.83465 20.9055 7.94956 20.9039 8.06604C20.8992 8.67676 20.5875 9.04036 19.9815 9.10804C19.6714 9.14267 19.3566 9.14896 19.0465 9.09387C18.5617 9.0073 18.2501 8.67833 18.2155 8.18881C18.1934 7.87715 18.1934 7.56235 18.2139 7.25069C18.2501 6.71552 18.6578 6.34248 19.1914 6.33304C19.4463 6.32831 19.7013 6.32674 19.9563 6.33461C20.4931 6.34878 20.8866 6.74071 20.9023 7.27588C20.907 7.42226 20.9023 7.57022 20.9039 7.71975Z" fill="white"/>
</svg>
