<svg width="21" height="20" viewBox="0 0 21 20" fill="none" xmlns="http://www.w3.org/2000/svg">
<path d="M10.1534 0.154733C12.0236 0.154733 13.8937 0.151331 15.7639 0.156434C16.8397 0.158985 17.8194 0.454092 18.6469 1.16762C19.5815 1.97385 20.1156 3.0012 20.1267 4.2301C20.1556 7.44991 20.1513 10.6697 20.1309 13.8895C20.119 15.701 18.7438 17.1961 16.9638 17.3942C16.7079 17.4223 16.6118 17.5244 16.622 17.7778C16.6356 18.1171 16.6296 18.4582 16.6237 18.7975C16.6152 19.2652 16.4425 19.6513 16.0147 19.8784C15.5878 20.1055 15.1924 19.9898 14.8224 19.7253C13.8461 19.0263 12.8664 18.3323 11.8952 17.6264C11.6791 17.4691 11.4623 17.3942 11.191 17.3951C8.91687 17.4036 6.64276 17.4019 4.36865 17.3993C2.01205 17.3968 0.158914 15.5581 0.15126 13.199C0.142755 10.3083 0.147858 7.41844 0.149559 4.52776C0.15126 1.99086 1.96697 0.16749 4.51153 0.157284C6.39188 0.147929 8.27223 0.154733 10.1534 0.154733ZM13.784 7.84282C13.6131 7.83516 13.5195 7.82666 13.4268 7.82666C12.6401 7.82581 11.8535 7.82071 11.0677 7.82921C10.8278 7.83176 10.7045 7.75777 10.7275 7.50094C10.7377 7.38527 10.7292 7.26706 10.7292 7.15055C10.7292 6.39025 10.7292 5.62909 10.7292 4.77439C9.3574 6.48975 8.0443 8.13112 6.68528 9.82947C7.61312 9.82947 8.45167 9.82862 9.29022 9.82947C9.74861 9.82947 9.74946 9.83033 9.75031 10.2811C9.75116 11.1171 9.75031 11.9531 9.75031 12.8834C11.117 11.1757 12.4275 9.53777 13.784 7.84282Z" fill="white"/>
</svg>
