<svg width="28" height="26" viewBox="0 0 28 26" fill="none" xmlns="http://www.w3.org/2000/svg">
<path d="M0.829224 9.35063C0.987777 8.35577 1.7784 7.82099 2.41906 7.18033C2.64211 6.95728 2.89794 6.76594 3.1828 6.61975C3.8541 6.27577 4.51304 6.29888 5.12253 6.73799C6.13566 7.46787 6.84673 8.44284 7.29982 9.59948C7.57071 10.2907 7.41484 10.9281 6.94724 11.4951C6.69624 11.7993 6.41783 12.0788 6.1362 12.354C5.88305 12.6012 5.79706 12.8883 5.87015 13.2414C5.97173 13.7332 6.22166 14.1524 6.4963 14.5539C7.41108 15.8911 8.55159 17.0284 9.7265 18.1307C10.4833 18.8407 11.2701 19.5142 12.1919 20.0087C12.48 20.1634 12.7772 20.2876 13.1147 20.2946C13.37 20.3 13.5818 20.2253 13.7602 20.0388C14.0564 19.7292 14.3643 19.4325 14.6981 19.1621C15.2667 18.7015 15.9052 18.5935 16.5792 18.8547C17.6542 19.2718 18.5668 19.9382 19.28 20.8401C19.9578 21.6968 19.9185 22.5423 19.244 23.3985C18.8345 23.9187 18.3588 24.3772 17.8692 24.8179C17.2887 25.3404 16.5701 25.3903 15.8375 25.3221C14.2622 25.1759 12.839 24.5739 11.4765 23.8166C8.91546 22.3934 6.75536 20.4854 4.85433 18.2721C3.65524 16.8757 2.61846 15.3708 1.83214 13.7004C1.38873 12.7587 1.03991 11.7875 0.871146 10.7572C0.861472 10.6986 0.843735 10.6411 0.829761 10.583C0.829224 10.173 0.829224 9.7618 0.829224 9.35063Z" fill="white"/>
<path d="M27.1692 12.4112C27.1267 15.743 25.912 18.5776 23.5289 20.9059C22.8345 21.5847 22.0557 22.1604 21.2038 22.6323C21.1323 22.6715 21.0571 22.7613 20.9743 22.7091C20.8991 22.6618 20.9582 22.5651 20.9657 22.4936C21.0211 21.9921 20.991 21.4998 20.7986 21.0301C20.719 20.8355 20.8426 20.7699 20.9652 20.6872C22.24 19.8224 23.272 18.7286 24.0497 17.3973C24.6748 16.3278 25.0709 15.1776 25.2784 13.9575C25.3197 13.7135 25.2639 13.5754 25.0322 13.4512C24.5039 13.1685 23.9992 12.8433 23.4795 12.544C23.2973 12.4392 23.3059 12.3736 23.4821 12.2725C24.0169 11.9656 24.5404 11.6383 25.0806 11.3411C25.2757 11.2336 25.3117 11.11 25.2789 10.9095C24.9193 8.68762 23.939 6.78928 22.3196 5.22524C20.9614 3.91274 19.3506 3.06838 17.5092 2.6599C17.284 2.60991 17.054 2.58143 16.8277 2.53682C16.6746 2.50672 16.5929 2.57874 16.5203 2.70397C16.207 3.24467 15.8877 3.78267 15.5674 4.31961C15.4308 4.54857 15.4072 4.54803 15.2701 4.31853C14.9541 3.78859 14.6359 3.26079 14.3317 2.72439C14.2344 2.55294 14.1189 2.51478 13.9329 2.54542C11.1472 3.00495 8.93606 4.3884 7.28496 6.67157C7.14575 6.86399 7.06567 6.87957 6.90926 6.69253C6.63999 6.37059 6.33955 6.07337 5.98643 5.84118C5.80638 5.7224 5.83003 5.62136 5.94236 5.46979C6.9184 4.14976 8.11105 3.0716 9.52997 2.24712C11.4912 1.10715 13.612 0.570216 15.8732 0.663736C18.6014 0.776605 21.0211 1.72631 23.0898 3.51609C25.2671 5.39884 26.5656 7.78252 27.0413 10.6171C27.0698 10.7859 27.0886 10.9563 27.1058 11.1261C27.1493 11.5523 27.1799 11.9796 27.1692 12.4112Z" fill="white"/>
<path d="M12.4848 14.97C11.8345 14.97 11.1836 14.9603 10.5333 14.9754C10.2925 14.9807 10.1984 14.8926 10.1748 14.6615C10.0743 13.6736 10.3667 12.8395 11.1138 12.1725C11.4787 11.8462 11.8813 11.571 12.2768 11.2856C12.4155 11.1857 12.5558 11.0857 12.6816 10.9707C12.9659 10.71 13.0277 10.4106 12.8654 10.1478C12.7138 9.90272 12.3343 9.79791 12.0135 9.91723C11.7808 10.0038 11.6002 10.1591 11.4674 10.366C11.375 10.5095 11.2852 10.5396 11.1363 10.4321C10.859 10.2322 10.5725 10.0435 10.2834 9.86079C10.1431 9.77211 10.1339 9.68558 10.2097 9.54422C10.9525 8.16346 13.132 7.87001 14.1994 9.01052C14.8223 9.6759 14.8465 10.8035 14.259 11.5968C13.9736 11.9827 13.5888 12.2531 13.204 12.5245C12.8826 12.7508 12.5278 12.9308 12.2392 13.2028C12.1554 13.2813 12.0285 13.371 12.0855 13.4978C12.1328 13.6027 12.272 13.5494 12.3693 13.55C13.0712 13.5537 13.7732 13.5602 14.4746 13.5478C14.711 13.5435 14.7943 13.6242 14.7804 13.8585C14.7642 14.1401 14.7669 14.4234 14.7793 14.7055C14.7879 14.9066 14.7137 14.9764 14.5127 14.9737C13.8371 14.9641 13.161 14.97 12.4848 14.97Z" fill="white"/>
<path d="M19.9138 10.2277C19.9138 10.733 19.9203 11.2387 19.9106 11.7439C19.9068 11.939 19.9633 12.0213 20.1713 12.0175C20.7437 12.0073 20.6819 11.9724 20.6851 12.5507C20.6862 12.756 20.6781 12.9624 20.6867 13.1672C20.6942 13.3461 20.6136 13.4047 20.4432 13.4133C19.9128 13.4402 19.9128 13.445 19.9128 13.9782C19.9128 14.2265 19.9074 14.4754 19.9138 14.7237C19.9187 14.8941 19.859 14.9752 19.6768 14.9714C19.2914 14.9634 18.9055 14.9634 18.5207 14.9714C18.338 14.9752 18.2815 14.8951 18.2858 14.7242C18.2934 14.4248 18.2874 14.1244 18.2874 13.825C18.2874 13.4122 18.2874 13.4122 17.8618 13.4122C17.1507 13.4122 16.4396 13.4053 15.7291 13.416C15.4905 13.4192 15.412 13.3467 15.3969 13.0957C15.3685 12.6125 15.4926 12.2067 15.7624 11.8009C16.4493 10.7668 17.1023 9.70962 17.7591 8.65564C17.8725 8.47398 18.001 8.39873 18.216 8.40572C18.6782 8.42023 19.1415 8.41969 19.6037 8.40625C19.8343 8.3998 19.9246 8.47129 19.9176 8.71207C19.9036 9.21676 19.9138 9.72252 19.9138 10.2277ZM18.2874 10.1584C18.1235 10.4228 17.9832 10.6566 17.8354 10.8856C17.6366 11.1936 17.4307 11.4967 17.2308 11.8041C17.1958 11.8579 17.1174 11.9127 17.1588 11.981C17.1969 12.0444 17.284 12.0127 17.349 12.0132C17.5963 12.0159 17.8435 12.0111 18.0907 12.0143C18.231 12.0164 18.2896 11.9557 18.2885 11.8149C18.2858 11.2704 18.2874 10.7265 18.2874 10.1584Z" fill="white"/>
</svg>
