<svg width="14" height="30" viewBox="0 0 14 30" fill="none" xmlns="http://www.w3.org/2000/svg">
<path d="M7.00163 29.5741C5.52099 29.5741 4.04035 29.5756 2.55971 29.5741C1.26725 29.5725 0.580363 28.8485 0.536997 27.5552C0.485887 26.018 0.842107 24.611 1.76828 23.3828C3.22724 21.4476 5.19962 20.523 7.60488 20.7561C10.1046 20.9977 11.8919 22.3436 12.9482 24.635C13.419 25.6556 13.5197 26.7382 13.4461 27.841C13.3757 28.8926 12.6384 29.5655 11.5605 29.5717C10.0403 29.581 8.52098 29.5741 7.00163 29.5741Z" fill="white"/>
<path d="M10.281 16.9083C10.281 18.7343 8.82518 20.1902 6.99916 20.1909C5.17314 20.1909 3.71729 18.7351 3.71729 16.9083C3.71729 15.0784 5.1654 13.6318 6.99916 13.6318C8.83292 13.6318 10.281 15.0776 10.281 16.9083Z" fill="white"/>
<path d="M4.37038 11.9072C4.38664 11.8422 4.41065 11.7392 4.43852 11.6369C4.62438 10.9563 4.80326 10.2732 5.00306 9.59642C5.07198 9.36411 5.0139 9.22239 4.82727 9.07835C4.25422 8.63308 3.69278 8.17386 3.13057 7.71542C3.00899 7.6163 2.81927 7.53344 2.88664 7.33132C2.95634 7.12301 3.1631 7.15167 3.33269 7.14237C4.06604 7.10288 4.79939 7.06106 5.53352 7.03473C5.75577 7.02699 5.85799 6.92399 5.93 6.72885C6.17394 6.06597 6.42871 5.40773 6.67884 4.74795C6.70285 4.68445 6.72453 4.62018 6.75086 4.55822C6.79655 4.44904 6.84766 4.34062 6.9886 4.3352C7.1458 4.329 7.20388 4.44439 7.25034 4.56519C7.50822 5.24279 7.77538 5.91806 8.01622 6.60185C8.11766 6.88992 8.25396 7.04712 8.58849 7.04945C9.16774 7.05332 9.74621 7.10443 10.3255 7.13385C10.4803 7.1416 10.6352 7.13773 10.7893 7.14934C10.9256 7.15941 11.0696 7.178 11.1177 7.33675C11.1626 7.48543 11.0518 7.56984 10.955 7.64883C10.6182 7.92451 10.2774 8.19555 9.93904 8.46891C9.668 8.68729 9.40083 8.91186 9.1236 9.12172C8.96949 9.23788 8.93387 9.36023 8.98731 9.54609C9.18478 10.2337 9.36753 10.9253 9.55571 11.6153C9.57894 11.6989 9.6045 11.7825 9.61999 11.8685C9.64012 11.9754 9.64322 12.0838 9.54564 12.1612C9.43181 12.251 9.32494 12.1976 9.22505 12.1326C8.66593 11.7686 8.08979 11.4263 7.55468 11.029C7.16748 10.741 6.86934 10.7023 6.46511 11.0198C5.94239 11.4302 5.3585 11.7647 4.79474 12.1217C4.54074 12.2812 4.37193 12.203 4.37038 11.9072Z" fill="white"/>
<path d="M12.104 3.35358C12.097 3.51852 12.018 3.64707 11.8995 3.75471C11.3776 4.22864 10.8595 4.70644 10.3306 5.17262C10.0704 5.40262 9.78004 5.38868 9.58412 5.16566C9.40601 4.96199 9.42846 4.6592 9.66388 4.44392C10.1974 3.9545 10.7387 3.47361 11.28 2.99271C11.4388 2.85177 11.6223 2.82002 11.8182 2.91372C12.0025 3.00123 12.0831 3.15843 12.104 3.35358Z" fill="white"/>
<path d="M4.00693 5.32245C3.87683 5.3302 3.74906 5.24579 3.63213 5.14047C3.12335 4.68125 2.61148 4.22514 2.10812 3.75973C1.8456 3.51657 1.82547 3.24166 2.03068 3.02096C2.22505 2.81187 2.49841 2.80103 2.75242 3.02328C3.28984 3.49334 3.8172 3.97501 4.34689 4.45513C4.52345 4.61543 4.57146 4.81677 4.47776 5.03438C4.39955 5.21559 4.24932 5.31548 4.00693 5.32245Z" fill="white"/>
<path d="M7.48261 1.78357C7.48261 2.0639 7.49113 2.345 7.48029 2.62533C7.46945 2.91728 7.27817 3.10003 7.00481 3.10313C6.7299 3.10623 6.52469 2.92502 6.51927 2.63695C6.50843 2.05693 6.50843 1.47613 6.52004 0.896114C6.52546 0.616558 6.74849 0.417539 7.00791 0.42296C7.2681 0.42838 7.47022 0.628174 7.48029 0.91315C7.49036 1.20277 7.48261 1.49317 7.48261 1.78357Z" fill="white"/>
</svg>
