<svg width="26" height="17" viewBox="0 0 26 17" fill="none" xmlns="http://www.w3.org/2000/svg">
<path d="M25.4373 9.54722C25.3163 9.55256 25.1953 9.56228 25.0743 9.56228C21.5283 9.56325 17.9822 9.56277 14.4361 9.56325C14.0819 9.56325 14.0815 9.56374 14.0815 9.92374C14.0815 12.0531 14.0815 14.1825 14.081 16.3114C14.081 16.6452 14.0771 16.6486 13.7409 16.6491C13.239 16.6501 12.7367 16.6389 12.2353 16.6539C11.9924 16.6612 11.9132 16.5825 11.9142 16.3357C11.9224 14.1903 11.919 12.0449 11.9185 9.89945C11.9185 9.56422 11.9181 9.56374 11.5882 9.56374C8.03384 9.56374 4.47999 9.56374 0.925659 9.56277C0.804688 9.56277 0.683716 9.55305 0.562744 9.5477C0.562744 8.83499 0.562744 8.12276 0.562744 7.41005C0.684202 7.40762 0.805173 7.40325 0.926631 7.40325C4.47951 7.40276 8.03239 7.40325 11.5853 7.40276C11.9176 7.40276 11.9181 7.40179 11.9181 7.06608C11.9185 4.94543 11.9181 2.82527 11.9185 0.70462C11.9185 0.348992 11.9195 0.348506 12.2834 0.348021C12.761 0.347535 13.2385 0.347535 13.7161 0.348021C14.08 0.348506 14.081 0.348506 14.081 0.70462C14.0815 2.79272 14.0805 4.88082 14.0815 6.96892C14.0815 7.43386 14.0343 7.40276 14.5114 7.40276C18.0322 7.40325 21.5526 7.40276 25.0734 7.40325C25.1948 7.40325 25.3158 7.40762 25.4373 7.41005C25.4373 8.12228 25.4373 8.83499 25.4373 9.54722Z" fill="white"/>
<path d="M0.562744 10.9561C3.18671 10.9561 5.81068 10.9561 8.43514 10.9561C8.43805 10.9813 8.44097 11.0061 8.44437 11.0314C8.28745 11.1693 8.09554 11.2548 7.91627 11.3578C5.50947 12.742 3.10169 14.1246 0.693918 15.5068C0.652137 15.5311 0.606955 15.5501 0.563716 15.571C0.562744 14.0333 0.562744 12.4947 0.562744 10.9561Z" fill="white"/>
<path d="M25.4373 15.5714C24.1309 14.8242 22.8235 14.077 21.5176 13.3289C20.2884 12.6249 19.0602 11.9199 17.833 11.2126C17.7383 11.1577 17.6246 11.1237 17.5236 10.9561C20.1898 10.9561 22.8138 10.9561 25.4373 10.9561C25.4373 12.4947 25.4373 14.0333 25.4373 15.5714Z" fill="white"/>
<path d="M0.562744 1.43359C0.745416 1.46177 0.883392 1.58274 1.03594 1.66971C3.43497 3.04364 5.83206 4.42096 8.22866 5.79975C8.30153 5.84153 8.39579 5.86485 8.42785 5.96299C8.38267 6.03489 8.31125 6.01109 8.25198 6.01109C5.72906 6.01206 3.20663 6.01206 0.683716 6.01109C0.643392 6.01109 0.603068 6.00429 0.56323 6.00089C0.562744 4.47829 0.562744 2.95619 0.562744 1.43359Z" fill="white"/>
<path d="M25.4372 5.99992C25.2186 6.0038 25.0005 6.01109 24.7819 6.01109C22.4824 6.01206 20.183 6.01158 17.884 6.01158C17.7825 6.01158 17.681 6.01158 17.5697 6.01158C17.5911 5.86631 17.6916 5.84688 17.7621 5.80656C20.2529 4.37384 22.7453 2.94356 25.2371 1.51327C25.2997 1.47732 25.3595 1.43311 25.4372 1.4336C25.4372 2.9557 25.4372 4.47781 25.4372 5.99992Z" fill="white"/>
<path d="M1.68799 0.347656C1.7939 0.347656 1.88135 0.347656 1.9688 0.347656C4.70451 0.347656 7.43973 0.347656 10.1754 0.347656C10.5262 0.347656 10.5277 0.348628 10.5277 0.695025C10.5282 2.17632 10.5282 3.65713 10.5277 5.13843C10.5277 5.48823 10.5189 5.49503 10.2221 5.32499C7.44313 3.73049 4.66418 2.13503 1.88669 0.538102C1.81625 0.497778 1.72054 0.476887 1.68799 0.347656Z" fill="white"/>
<path d="M24.3088 0.375369C24.2719 0.482737 24.1767 0.503628 24.1048 0.544923C21.3336 2.13845 18.5614 3.73051 15.7888 5.32161C15.4866 5.49505 15.473 5.4863 15.4725 5.15011C15.472 3.66055 15.472 2.171 15.4725 0.681927C15.4725 0.349134 15.4745 0.348162 15.8146 0.348162C18.5585 0.347676 21.303 0.347676 24.047 0.348648C24.1325 0.348648 24.2214 0.332615 24.3088 0.375369Z" fill="white"/>
<path d="M1.65894 16.5787C1.83238 16.4761 1.98298 16.3848 2.13554 16.2974C4.82315 14.7539 7.51028 13.2109 10.1989 11.6689C10.5127 11.4891 10.5278 11.4988 10.5278 11.8491C10.5283 13.3382 10.5283 14.8277 10.5278 16.3168C10.5278 16.6389 10.5181 16.6491 10.2047 16.6491C7.44469 16.6496 4.68517 16.6496 1.92517 16.6481C1.8489 16.6476 1.76436 16.6744 1.65894 16.5787Z" fill="white"/>
<path d="M24.3156 16.6135C24.217 16.6669 24.1261 16.6475 24.0392 16.6475C21.303 16.6485 18.5668 16.6485 15.8311 16.6485C15.4759 16.6485 15.473 16.646 15.4725 16.3026C15.472 14.8213 15.472 13.34 15.4725 11.8587C15.4725 11.4977 15.4876 11.4875 15.7917 11.6614C18.5716 13.2559 21.3516 14.8509 24.13 16.4473C24.1966 16.4857 24.2821 16.5076 24.3156 16.6135Z" fill="white"/>
</svg>
