<svg width="22" height="23" viewBox="0 0 22 23" fill="none" xmlns="http://www.w3.org/2000/svg">
<path d="M0.23291 21.4001C0.23291 14.8998 0.23291 8.39954 0.23291 1.89928C0.24804 1.86005 0.26373 1.82139 0.27886 1.78216C0.582019 0.97187 1.17321 0.562802 2.03673 0.674315C3.48584 0.862038 4.92879 1.10131 6.37453 1.31986C8.08982 1.57931 9.80454 1.84156 11.5198 2.09877C11.9816 2.16769 12.4332 2.24951 12.7812 2.60254C13.1331 2.95837 13.267 3.39322 13.267 3.88186C13.2665 5.57697 13.267 7.27152 13.267 8.96663C13.267 13.2108 13.267 17.4556 13.267 21.6998C13.267 22.0467 13.2659 22.0473 12.9191 22.0473C11.8616 22.0473 10.8037 22.0473 9.74626 22.0473C9.39043 22.0473 9.38987 22.0467 9.38987 21.6875C9.38931 20.2306 9.39491 18.7736 9.38595 17.3172C9.38034 16.4318 8.72079 15.788 7.83373 15.7835C7.13327 15.7796 6.43281 15.7818 5.73235 15.7829C4.70296 15.7841 4.07198 16.4167 4.07086 17.4489C4.06974 18.8918 4.06694 20.3348 4.07423 21.7772C4.07535 21.989 4.0081 22.0546 3.79684 22.0518C2.9703 22.0411 2.1432 22.0305 1.31778 22.054C0.79776 22.068 0.440246 21.8741 0.23291 21.4001ZM4.48217 5.63132C4.71977 5.63132 4.95736 5.63861 5.19496 5.62964C5.54127 5.61675 5.7996 5.3489 5.80688 5.00931C5.81473 4.66749 5.54855 4.36489 5.20337 4.35593C4.72873 4.3436 4.25298 4.34248 3.77779 4.35649C3.4242 4.36713 3.17876 4.65348 3.18324 5.01156C3.18773 5.3601 3.43261 5.61563 3.79012 5.62964C4.02099 5.63861 4.25186 5.63132 4.48217 5.63132ZM4.48946 8.32108V8.32052C4.72705 8.32052 4.96521 8.32837 5.20225 8.31884C5.54631 8.30483 5.80352 8.03249 5.808 7.69235C5.81248 7.35053 5.54463 7.05297 5.19776 7.04513C4.72986 7.03392 4.26139 7.03392 3.79348 7.04513C3.43653 7.05353 3.18436 7.33204 3.18436 7.68731C3.18436 8.04762 3.43036 8.30651 3.79797 8.31996C4.02772 8.32837 4.25859 8.32108 4.48946 8.32108ZM4.49842 11.0108C4.7293 11.0108 4.95961 11.0176 5.18992 11.0092C5.54631 10.9957 5.80688 10.7217 5.80688 10.3726C5.80688 10.0319 5.53566 9.74105 5.18712 9.73377C4.71921 9.72424 4.25074 9.722 3.78284 9.73545C3.42756 9.74554 3.17988 10.0285 3.18324 10.3866C3.18604 10.7363 3.4298 10.9946 3.78564 11.0092C4.02323 11.0181 4.26083 11.0103 4.49842 11.0108ZM4.49282 13.7012C4.72369 13.7012 4.954 13.7079 5.18431 13.6995C5.54295 13.6872 5.80464 13.4171 5.80744 13.0685C5.81024 12.7194 5.53342 12.4291 5.17255 12.423C4.71865 12.4151 4.26419 12.4146 3.80973 12.4235C3.43933 12.4308 3.18212 12.706 3.18324 13.0708C3.18436 13.4305 3.43092 13.6872 3.80077 13.7C4.03108 13.7079 4.26195 13.7012 4.49282 13.7012ZM8.98136 5.63132C9.21223 5.63132 9.4431 5.63805 9.67341 5.62964C10.0214 5.61731 10.2988 5.32872 10.2977 4.99194C10.2965 4.65628 10.0169 4.36097 9.67005 4.35369C9.20158 4.34416 8.73312 4.34304 8.26465 4.35481C7.92787 4.36321 7.65833 4.65292 7.65105 4.9841C7.64376 5.31808 7.92283 5.61563 8.26801 5.62908C8.50561 5.63861 8.74376 5.63132 8.98136 5.63132ZM8.96455 8.32108C9.20215 8.32108 9.4403 8.32837 9.67734 8.3194C10.0236 8.30651 10.3021 8.01288 10.2977 7.67778C10.2932 7.34885 10.0214 7.05353 9.6863 7.04513C9.21111 7.03336 8.73536 7.03336 8.26017 7.04513C7.92451 7.05353 7.65385 7.34941 7.65049 7.6789C7.64713 8.014 7.92563 8.30651 8.27194 8.3194C8.50281 8.32781 8.73424 8.32108 8.96455 8.32108ZM8.96343 11.0108C9.20102 11.0108 9.43918 11.0181 9.67678 11.0092C10.0236 10.9963 10.3016 10.7038 10.2982 10.3687C10.2943 10.0403 10.0225 9.7433 9.68798 9.73489C9.21279 9.72312 8.73704 9.72312 8.26185 9.73489C7.92563 9.7433 7.65553 10.0375 7.65105 10.3675C7.64657 10.7021 7.92563 10.9963 8.27137 11.0092C8.50169 11.0181 8.73312 11.0108 8.96343 11.0108ZM8.95334 13.7C9.19822 13.7 9.4431 13.7079 9.68742 13.6984C10.0236 13.6849 10.2926 13.4003 10.2971 13.0685C10.3016 12.7435 10.0298 12.4353 9.69751 12.4258C9.21559 12.4123 8.73256 12.4118 8.25064 12.4258C7.91666 12.4353 7.64657 12.7418 7.65105 13.068C7.65553 13.3991 7.92563 13.6844 8.26129 13.6984C8.4916 13.7079 8.72303 13.7 8.95334 13.7Z" fill="#FFFAFA"/>
<path d="M14.0961 15.4653C14.0961 13.378 14.0961 11.2906 14.0961 9.20378C14.0961 8.867 14.0989 8.86588 14.4245 8.93368C16.4037 9.34667 18.3829 9.76134 20.3627 10.1715C21.0783 10.32 21.5691 10.7067 21.7373 11.4419C21.7619 11.5495 21.7653 11.6638 21.7653 11.7753C21.767 14.6679 21.7675 17.5605 21.7658 20.4537C21.7653 21.3609 21.0777 22.044 20.1665 22.0451C18.2406 22.0474 16.314 22.0463 14.388 22.0457C14.1051 22.0457 14.0966 22.039 14.0966 21.7476C14.0955 19.6541 14.0961 17.56 14.0961 15.4653ZM17.7144 13.9439C17.9245 13.9439 18.1347 13.9501 18.3442 13.9428C18.7376 13.9282 19.034 13.6486 19.0396 13.2956C19.0452 12.9386 18.7387 12.6433 18.3364 12.6355C17.9234 12.6271 17.5104 12.6271 17.0974 12.6355C16.6867 12.6433 16.3897 12.9274 16.3925 13.2922C16.3953 13.6514 16.6996 13.9327 17.1058 13.9439C17.3081 13.949 17.5115 13.9439 17.7144 13.9439ZM17.7256 15.323C17.5154 15.323 17.3053 15.3174 17.0957 15.3241C16.6861 15.337 16.388 15.6194 16.3925 15.9831C16.3964 16.3356 16.6934 16.6225 17.0862 16.6314C17.5059 16.6415 17.9262 16.6415 18.3459 16.6314C18.7387 16.6219 19.0352 16.3356 19.0396 15.9831C19.0441 15.6256 18.7376 15.3364 18.3347 15.3241C18.1319 15.3179 17.9284 15.323 17.7256 15.323ZM17.72 19.3234C17.9301 19.3234 18.1403 19.3302 18.3498 19.3218C18.7415 19.3061 19.0385 19.0197 19.0391 18.6684C19.0396 18.317 18.7415 18.0245 18.3504 18.015C17.9307 18.0043 17.5104 18.0055 17.0907 18.0144C16.6827 18.0234 16.3835 18.3142 16.3914 18.6768C16.3992 19.0304 16.6956 19.3083 17.0896 19.3218C17.3003 19.3296 17.5104 19.3234 17.72 19.3234Z" fill="#FFFAFA"/>
</svg>
