<svg width="18" height="17" viewBox="0 0 18 17" fill="none" xmlns="http://www.w3.org/2000/svg">
<path d="M3.42521 15.0355C3.56124 14.2269 3.71143 13.3302 3.86379 12.4334C3.94106 11.9785 3.99112 11.516 4.10648 11.0698C4.22075 10.6258 4.07056 10.3134 3.7604 10.0163C2.8582 9.15003 1.96907 8.2696 1.06796 7.40114C0.712091 7.05724 0.480284 6.6796 0.662029 6.16919C0.841598 5.66314 1.2595 5.5086 1.74597 5.44221C2.95724 5.27679 4.16416 5.08525 5.37652 4.93072C5.86081 4.86868 6.15138 4.63688 6.35707 4.19721C6.86204 3.11327 7.40836 2.04783 7.92748 0.969329C8.15166 0.504628 8.41503 0.122637 9.00706 0.12699C9.60018 0.131343 9.85375 0.525305 10.0769 0.986742C10.6101 2.08809 11.1608 3.18074 11.6875 4.28536C11.8617 4.65102 12.1087 4.85127 12.5179 4.90677C13.7825 5.07546 15.0449 5.26482 16.3084 5.45092C17.2433 5.58913 17.6797 6.37815 17.2128 7.08009C17.1529 7.16933 17.0768 7.24987 16.9995 7.32605C16.0679 8.24022 15.1385 9.15765 14.1993 10.0642C13.9218 10.3319 13.8043 10.6094 13.8783 11.0077C14.1177 12.2898 14.3245 13.5772 14.5454 14.8625C14.6216 15.3065 14.5617 15.707 14.1786 15.9987C13.7836 16.299 13.3776 16.262 12.9565 16.0367C11.841 15.4425 10.7113 14.8712 9.60453 14.2617C9.17357 14.0245 8.81008 14.0354 8.38238 14.2704C7.25056 14.8919 6.10567 15.4926 4.95208 16.0737C4.18157 16.4623 3.41541 15.9714 3.42521 15.0355Z" fill="white"/>
</svg>
