<svg width="275" height="61" viewBox="0 0 275 61" fill="none" xmlns="http://www.w3.org/2000/svg">
<path d="M2 60.4282V2H60.9807V11.8783" stroke="white" stroke-width="4"/>
<path d="M58.8667 40.8274V17.5612H61.5261L71.2036 33.486H69.469L79.1464 17.5612H81.8058V40.8274H77.9839V24.2753L78.8475 24.5081L71.6678 36.3072H69.0035L61.8238 24.5081L62.6874 24.2753V40.8274H58.8667ZM85.117 40.8274L94.6853 17.5612H97.3448L106.851 40.8262H102.73L95.2868 21.9822H96.6833L89.1729 40.8274H85.117ZM89.8368 36.3402V33.0144H102.168V36.3378L89.8368 36.3402ZM109.927 40.8274V17.5612H112.586L113.75 21.9479V40.8274H109.927ZM126.046 40.8274L112.117 22.6473L112.582 17.5624L126.508 35.7425L126.046 40.8274ZM126.046 40.8274L124.883 36.7396V17.5612H128.704V40.8274H126.046ZM144.319 41.1594C142.713 41.1744 141.12 40.8691 139.633 40.2614C138.23 39.6612 136.961 38.7878 135.9 37.6923C134.839 36.5968 134.006 35.301 133.45 33.8805C132.868 32.3869 132.575 30.7965 132.586 29.1937C132.573 27.601 132.866 26.0205 133.45 24.5387C134.003 23.1116 134.84 21.8114 135.91 20.7168C137.634 19.0408 139.81 17.9057 142.171 17.4514C144.532 16.9972 146.975 17.2435 149.197 18.1602C150.56 18.7727 151.799 19.6287 152.854 20.6861L150.262 23.2782C149.559 22.5136 148.696 21.9123 147.736 21.5167C146.65 21.0743 145.485 20.8592 144.312 20.8846C143.23 20.8708 142.156 21.0741 141.154 21.4824C140.21 21.8761 139.36 22.4666 138.662 23.2145C137.959 23.9728 137.418 24.8659 137.07 25.8397C136.316 28.0143 136.316 30.3792 137.07 32.5538C137.422 33.5355 137.963 34.4389 138.662 35.2133C139.369 35.9431 140.217 36.5201 141.155 36.9086C142.157 37.317 143.231 37.5202 144.313 37.5064C145.54 37.5411 146.761 37.3261 147.902 36.8743C148.86 36.4589 149.721 35.8476 150.428 35.0797L153.02 37.6718C151.949 38.7629 150.672 39.6325 149.265 40.2308C147.696 40.875 146.011 41.1911 144.316 41.1594H144.319ZM156.437 40.8274V17.5612H160.259V40.8274H156.437ZM171.227 40.8274V17.5612H175.049V40.8274H171.227ZM159.063 30.524V27.034H172.056V30.524H159.063ZM180.099 40.8274V17.5612H183.921V40.8274H180.099ZM182.724 40.8274V37.3374H195.747V40.8274H182.724ZM182.724 30.6232V27.2668H194.622V30.6232H182.724ZM182.724 21.0512V17.5612H195.586V21.0512H182.724ZM205.599 41.1594C203.98 41.2075 202.372 40.8655 200.913 40.1622C199.565 39.4447 198.386 38.4473 197.456 37.2369L200.048 34.6449C200.645 35.5326 201.428 36.281 202.341 36.8388C203.385 37.3856 204.553 37.6492 205.73 37.6032C206.809 37.6614 207.88 37.3827 208.793 36.8057C209.16 36.5717 209.46 36.2466 209.664 35.8621C209.868 35.4776 209.969 35.0469 209.957 34.6118C209.987 33.9294 209.775 33.2581 209.359 32.7167C208.925 32.2026 208.381 31.7934 207.766 31.5199C207.074 31.1675 206.35 30.8784 205.606 30.6563C204.831 30.3901 204.044 30.1022 203.246 29.7927C202.482 29.4679 201.757 29.0569 201.085 28.5677C200.428 28.0621 199.894 27.4142 199.523 26.6726C199.093 25.7477 198.888 24.7338 198.926 23.7143C198.886 22.4755 199.235 21.2553 199.923 20.2243C200.619 19.2418 201.574 18.471 202.682 17.9973C203.899 17.4746 205.212 17.2142 206.537 17.2329C207.951 17.2075 209.351 17.5151 210.624 18.1308C211.767 18.669 212.777 19.4519 213.583 20.424L210.991 23.0161C210.41 22.3285 209.698 21.7634 208.897 21.3537C208.137 20.9649 207.291 20.7708 206.437 20.789C205.479 20.7369 204.527 20.9806 203.712 21.4873C203.4 21.7073 203.148 22.002 202.98 22.3444C202.812 22.6868 202.732 23.066 202.748 23.4473C202.719 24.0775 202.932 24.695 203.342 25.1745C203.791 25.6336 204.32 26.0072 204.904 26.277C205.568 26.5653 206.289 26.8421 207.065 27.1075C207.862 27.3737 208.649 27.673 209.424 28.0054C210.205 28.3273 210.933 28.7642 211.585 29.3015C212.265 29.8319 212.81 30.5151 213.177 31.2957C213.607 32.2677 213.811 33.3243 213.775 34.3864C213.814 35.3282 213.633 36.266 213.246 37.1257C212.86 37.9854 212.278 38.7432 211.548 39.339C209.844 40.6336 207.734 41.279 205.597 41.1594H205.599ZM222.431 40.8274V18.2264H226.253V40.8274H222.431ZM214.853 21.0512V17.5612H233.83V21.0512H214.853ZM237.151 40.8274V17.5612H240.973V40.8274H237.151ZM239.777 40.8274V37.3374H252.806V40.8274H239.777ZM239.777 30.6232V27.2668H251.675V30.6232H239.777ZM239.777 21.0512V17.5612H252.639V21.0512H239.777ZM259.376 30.9552V27.7984H265.256C266.247 27.8614 267.223 27.5397 267.982 26.9005C268.321 26.5694 268.585 26.1699 268.757 25.7286C268.929 25.2873 269.004 24.8144 268.979 24.3415C268.99 23.8879 268.911 23.4367 268.745 23.0143C268.58 22.5918 268.331 22.2068 268.015 21.8817C267.654 21.5363 267.226 21.2693 266.757 21.0977C266.288 20.9261 265.788 20.8535 265.289 20.8846H259.373V17.5612H265.455C266.795 17.5324 268.12 17.8412 269.31 18.4591C270.375 18.9953 271.263 19.8261 271.869 20.8527C272.498 21.8823 272.821 23.07 272.8 24.2766C272.83 25.5154 272.507 26.7373 271.869 27.7996C271.26 28.8071 270.37 29.6158 269.31 30.1271C268.107 30.7018 266.787 30.9862 265.455 30.9576L259.376 30.9552ZM256.751 40.8262V17.5612H260.573V40.8274L256.751 40.8262ZM269.514 40.8262L261.372 30.7225L264.924 29.4264L274.33 40.8262H269.514Z" fill="white"/>
<path d="M63.0035 60.2567V48.8153H64.2677V60.2567H63.0035ZM58.8667 49.6409V48.4968H68.4045V49.6421L58.8667 49.6409ZM85.8703 54.9917V53.932H89.288C89.9334 53.9765 90.5708 53.7682 91.0655 53.3514C91.2726 53.143 91.434 52.8938 91.5394 52.6196C91.6449 52.3455 91.6921 52.0523 91.678 51.7589C91.6895 51.4713 91.641 51.1844 91.5356 50.9165C91.4301 50.6487 91.27 50.4057 91.0655 50.2032C90.8255 49.9871 90.5444 49.8214 90.239 49.7162C89.9337 49.611 89.6103 49.5683 89.288 49.5907H85.8703V48.4968H89.288C89.9663 48.4791 90.6387 48.6258 91.248 48.9243C91.7688 49.1734 92.2034 49.5722 92.4963 50.0697C92.797 50.5758 92.951 51.1556 92.941 51.7442C92.955 52.3461 92.801 52.94 92.4963 53.4592C92.2034 53.9566 91.7688 54.3554 91.248 54.6046C90.6323 54.8805 89.9626 55.0149 89.288 54.9978L85.8703 54.9917ZM85.0667 60.2591V48.4992H86.315V60.2591H85.0667ZM92.1717 60.2591L87.7617 54.8238L88.9757 54.4306L93.7789 60.2591H92.1717ZM108.917 60.2591L113.738 48.4992H114.677L119.446 60.2591H118.099L113.945 49.8663H114.435L110.257 60.2567L108.917 60.2591ZM111.122 57.1966V56.0856H117.275V57.1966H111.122ZM136.755 60.2591V59.0966H140.208C141.063 59.1151 141.908 58.909 142.658 58.4988C143.353 58.1014 143.926 57.5226 144.317 56.8242C144.725 56.0691 144.931 55.2214 144.915 54.3632C144.933 53.5083 144.727 52.6635 144.317 51.9133C143.929 51.2171 143.354 50.6428 142.658 50.2546C141.911 49.8344 141.065 49.6229 140.208 49.6421H136.797V48.4968H140.248C141.056 48.4879 141.857 48.639 142.607 48.9414C143.314 49.2202 143.957 49.6376 144.5 50.169C145.043 50.7005 145.475 51.3352 145.769 52.0358C146.361 53.5347 146.361 55.2028 145.769 56.7017C145.482 57.4053 145.057 58.0446 144.52 58.5821C143.974 59.1108 143.329 59.527 142.623 59.8071C141.879 60.1085 141.083 60.2596 140.281 60.2517L136.755 60.2591ZM135.986 60.2591V48.4992H137.234V60.2591H135.986ZM163.151 60.2591V48.4992H164.399V60.2591H163.151ZM163.972 60.2591V59.1052H170.894V60.2505L163.972 60.2591ZM163.972 54.7895V53.6785H170.342V54.7895H163.972ZM163.972 49.6446V48.4968H170.799V49.6421L163.972 49.6446ZM190.693 60.4245C189.876 60.4457 189.067 60.2696 188.333 59.9112C187.658 59.5456 187.064 59.0453 186.59 58.4412L187.462 57.5837C187.818 58.1038 188.292 58.5317 188.846 58.832C189.437 59.1179 190.088 59.2586 190.744 59.2424C191.393 59.2722 192.034 59.0922 192.573 58.7291C192.799 58.5696 192.981 58.3564 193.103 58.1087C193.225 57.861 193.284 57.5866 193.274 57.3106C193.291 56.9038 193.178 56.5021 192.949 56.1652C192.728 55.8535 192.433 55.6011 192.091 55.4302C191.726 55.2255 191.342 55.0538 190.946 54.9169C190.525 54.7691 190.103 54.6152 189.681 54.4551C189.277 54.2877 188.892 54.0757 188.535 53.823C188.181 53.5728 187.888 53.2457 187.678 52.8663C187.456 52.4029 187.351 51.8925 187.37 51.3792C187.354 50.7978 187.515 50.2252 187.832 49.7377C188.146 49.2768 188.585 48.9151 189.098 48.6952C189.672 48.4363 190.297 48.3079 190.926 48.3191C191.63 48.306 192.326 48.4583 192.96 48.7638C193.545 49.0449 194.059 49.4539 194.464 49.9606L193.607 50.8181C193.276 50.4132 192.869 50.0766 192.41 49.8271C191.938 49.5903 191.416 49.473 190.889 49.4853C190.303 49.4555 189.725 49.6243 189.247 49.9643C189.046 50.1211 188.885 50.324 188.778 50.556C188.672 50.7879 188.622 51.0421 188.635 51.2971C188.616 51.68 188.724 52.0583 188.942 52.3739C189.175 52.6607 189.468 52.8938 189.8 53.0574C190.17 53.2453 190.553 53.409 190.945 53.5474C191.366 53.6838 191.788 53.8377 192.21 54.0092C192.62 54.173 193.005 54.3914 193.356 54.6585C193.714 54.9252 194.007 55.2699 194.213 55.6666C194.447 56.1446 194.559 56.6734 194.538 57.2052C194.56 57.655 194.478 58.1039 194.297 58.5164C194.116 58.9289 193.841 59.2936 193.495 59.5817C192.69 60.1805 191.702 60.4794 190.7 60.4269L190.693 60.4245Z" fill="white"/>
<path d="M23.3243 48.209H13.9617V60.4282H23.3243V48.209Z" fill="#0073EC"/>
<path d="M36.6966 37.418H27.334V60.4281H36.6966V37.418Z" fill="#0073EC"/>
<path d="M39.6538 23.9399L44.3357 20.4707L49.0176 23.9399V60.4274H39.6538V23.9399Z" fill="#0073EC"/>
</svg>
