<svg width="224" height="50" viewBox="0 0 224 50" fill="none" xmlns="http://www.w3.org/2000/svg">
<path d="M2 49.5632V2H50.0129V10.0414" stroke="black" stroke-width="4"/>
<path d="M48.2917 33.6072V14.6675H50.4567L58.3345 27.631H56.9225L64.8003 14.6675H66.9652V33.6072H63.854V20.1331L64.557 20.3226L58.7124 29.9275H56.5435L50.699 20.3226L51.402 20.1331V33.6072H48.2917ZM69.6606 33.6072L77.4497 14.6675H79.6146L87.3529 33.6062H83.9983L77.9393 18.2663H79.0761L72.9623 33.6072H69.6606ZM73.5028 29.9545V27.2471H83.5406V29.9525L73.5028 29.9545ZM89.8568 33.6072V14.6675H92.0217L92.9691 18.2384V33.6072H89.8568ZM102.979 33.6072L91.6398 18.8078L92.0187 14.6685L103.355 29.4678L102.979 33.6072ZM102.979 33.6072L102.032 30.2796V14.6675H105.143V33.6072H102.979ZM117.854 33.8774C116.546 33.8897 115.249 33.6412 114.039 33.1465C112.897 32.6578 111.864 31.9469 111 31.0551C110.136 30.1633 109.458 29.1085 109.006 27.9521C108.532 26.7363 108.294 25.4416 108.303 24.1368C108.292 22.8403 108.531 21.5538 109.006 20.3475C109.456 19.1857 110.137 18.1273 111.008 17.2362C112.412 15.8719 114.183 14.9479 116.105 14.5781C118.027 14.2083 120.015 14.4089 121.825 15.1551C122.934 15.6537 123.943 16.3506 124.802 17.2113L122.691 19.3214C122.119 18.699 121.417 18.2095 120.635 17.8874C119.751 17.5273 118.803 17.3522 117.848 17.3729C116.967 17.3616 116.093 17.5271 115.277 17.8595C114.509 18.18 113.817 18.6607 113.249 19.2695C112.677 19.8868 112.236 20.6138 111.953 21.4065C111.339 23.1768 111.339 25.1019 111.953 26.8721C112.24 27.6713 112.68 28.4067 113.249 29.037C113.824 29.6311 114.515 30.1009 115.278 30.4172C116.094 30.7496 116.968 30.915 117.849 30.9038C118.848 30.932 119.842 30.757 120.771 30.3892C121.551 30.051 122.251 29.5534 122.827 28.9284L124.937 31.0384C124.065 31.9266 123.026 32.6345 121.88 33.1216C120.603 33.646 119.231 33.9032 117.851 33.8774H117.854ZM127.718 33.6072V14.6675H130.83V33.6072H127.718ZM139.758 33.6072V14.6675H142.87V33.6072H139.758ZM129.856 25.2198V22.3788H140.433V25.2198H129.856ZM146.98 33.6072V14.6675H150.091V33.6072H146.98ZM149.117 33.6072V30.7662H159.718V33.6072H149.117ZM149.117 25.3006V22.5682H158.803V25.3006H149.117ZM149.117 17.5085V14.6675H159.588V17.5085H149.117ZM167.739 33.8774C166.42 33.9167 165.112 33.6383 163.923 33.0657C162.826 32.4816 161.867 31.6697 161.109 30.6844L163.219 28.5744C163.706 29.297 164.343 29.9062 165.086 30.3603C165.936 30.8054 166.887 31.02 167.845 30.9826C168.724 31.0299 169.595 30.803 170.338 30.3334C170.637 30.1429 170.881 29.8782 171.047 29.5652C171.213 29.2522 171.296 28.9016 171.286 28.5474C171.311 27.9919 171.138 27.4455 170.799 27.0048C170.446 26.5862 170.003 26.2531 169.503 26.0305C168.939 25.7436 168.35 25.5083 167.744 25.3275C167.113 25.1108 166.473 24.8764 165.823 24.6245C165.201 24.3601 164.611 24.0255 164.064 23.6273C163.529 23.2157 163.094 22.6883 162.793 22.0846C162.442 21.3317 162.275 20.5063 162.306 19.6764C162.274 18.6679 162.558 17.6747 163.118 16.8354C163.685 16.0355 164.462 15.4081 165.363 15.0225C166.354 14.597 167.423 14.385 168.502 14.4002C169.653 14.3796 170.793 14.63 171.829 15.1312C172.759 15.5693 173.581 16.2066 174.237 16.9979L172.127 19.108C171.655 18.5483 171.075 18.0883 170.423 17.7548C169.804 17.4382 169.116 17.2803 168.421 17.2951C167.64 17.2526 166.866 17.4511 166.202 17.8635C165.948 18.0426 165.743 18.2825 165.606 18.5613C165.469 18.84 165.404 19.1486 165.417 19.459C165.394 19.9721 165.567 20.4747 165.901 20.865C166.267 21.2388 166.698 21.5429 167.172 21.7625C167.713 21.9972 168.3 22.2226 168.931 22.4386C169.581 22.6553 170.221 22.899 170.852 23.1696C171.488 23.4316 172.081 23.7872 172.611 24.2246C173.165 24.6564 173.609 25.2125 173.907 25.848C174.257 26.6393 174.423 27.4993 174.394 28.3639C174.426 29.1306 174.278 29.8941 173.964 30.5939C173.649 31.2937 173.176 31.9105 172.581 32.3956C171.194 33.4495 169.476 33.9748 167.737 33.8774H167.739ZM181.44 33.6072V15.209H184.551V33.6072H181.44ZM175.272 17.5085V14.6675H190.72V17.5085H175.272ZM193.423 33.6072V14.6675H196.535V33.6072H193.423ZM195.56 33.6072V30.7662H206.167V33.6072H195.56ZM195.56 25.3006V22.5682H205.246V25.3006H195.56ZM195.56 17.5085V14.6675H206.031V17.5085H195.56ZM211.516 25.5708V23.001H216.302C217.108 23.0523 217.903 22.7905 218.521 22.2701C218.797 22.0006 219.012 21.6753 219.152 21.3161C219.291 20.9569 219.353 20.5719 219.333 20.1869C219.342 19.8177 219.277 19.4504 219.142 19.1065C219.008 18.7627 218.805 18.4492 218.548 18.1846C218.254 17.9034 217.905 17.6861 217.523 17.5464C217.142 17.4067 216.735 17.3476 216.329 17.3729H211.513V14.6675H216.464C217.554 14.6441 218.634 14.8954 219.602 15.3984C220.469 15.8349 221.192 16.5112 221.685 17.3469C222.197 18.1851 222.46 19.1519 222.443 20.1341C222.467 21.1426 222.204 22.1373 221.685 23.002C221.189 23.8222 220.465 24.4805 219.602 24.8967C218.623 25.3645 217.548 25.5961 216.464 25.5728L211.516 25.5708ZM209.379 33.6062V14.6675H212.49V33.6072L209.379 33.6062ZM219.768 33.6062L213.14 25.3813L216.032 24.3263L223.688 33.6062H219.768Z" fill="black"/>
<path d="M51.6593 49.4234V40.1096H52.6884V49.4234H51.6593ZM48.2917 40.7817V39.8503H56.0559V40.7827L48.2917 40.7817ZM70.2739 45.1374V44.2749H73.0561C73.5814 44.311 74.1003 44.1415 74.503 43.8022C74.6716 43.6326 74.8029 43.4297 74.8888 43.2065C74.9746 42.9833 75.0131 42.7447 75.0016 42.5058C75.011 42.2717 74.9715 42.0382 74.8857 41.8201C74.7998 41.6021 74.6695 41.4043 74.503 41.2394C74.3076 41.0635 74.0788 40.9287 73.8302 40.843C73.5817 40.7573 73.3184 40.7226 73.0561 40.7408H70.2739V39.8503H73.0561C73.6082 39.836 74.1556 39.9554 74.6516 40.1983C75.0755 40.4011 75.4293 40.7258 75.6677 41.1307C75.9125 41.5427 76.0379 42.0147 76.0297 42.4939C76.0411 42.9838 75.9158 43.4673 75.6677 43.8899C75.4293 44.2949 75.0755 44.6195 74.6516 44.8223C74.1504 45.047 73.6052 45.1563 73.0561 45.1424L70.2739 45.1374ZM69.6197 49.4254V39.8523H70.6359V49.4254H69.6197ZM75.4035 49.4254L71.8136 45.0008L72.8018 44.6807L76.7118 49.4254H75.4035ZM89.0351 49.4254L92.9591 39.8523H93.7239L97.606 49.4254H96.5091L93.1276 40.9652H93.5265L90.1261 49.4234L89.0351 49.4254ZM90.8301 46.9324V46.0279H95.839V46.9324H90.8301ZM111.696 49.4254V48.479H114.507C115.203 48.4941 115.891 48.3263 116.502 47.9924C117.067 47.6689 117.534 47.1977 117.852 46.6292C118.184 46.0145 118.352 45.3244 118.339 44.6259C118.354 43.93 118.186 43.2423 117.852 42.6315C117.536 42.0648 117.069 41.5973 116.502 41.2813C115.894 40.9392 115.205 40.767 114.507 40.7827H111.73V39.8503H114.539C115.197 39.8431 115.85 39.9661 116.46 40.2123C117.035 40.4392 117.559 40.779 118.001 41.2116C118.443 41.6442 118.794 42.1609 119.034 42.7312C119.516 43.9514 119.516 45.3093 119.034 46.5295C118.8 47.1023 118.455 47.6227 118.018 48.0602C117.573 48.4906 117.048 48.8294 116.473 49.0574C115.868 49.3027 115.22 49.4258 114.566 49.4194L111.696 49.4254ZM111.07 49.4254V39.8523H112.086V49.4254H111.07ZM133.184 49.4254V39.8523H134.2V49.4254H133.184ZM133.852 49.4254V48.486H139.487V49.4184L133.852 49.4254ZM133.852 44.9729V44.0684H139.037V44.9729H133.852ZM133.852 40.7847V39.8503H139.409V40.7827L133.852 40.7847ZM155.604 49.56C154.939 49.5773 154.28 49.434 153.683 49.1422C153.133 48.8446 152.65 48.4373 152.264 47.9455L152.974 47.2475C153.264 47.6709 153.65 48.0192 154.101 48.2636C154.582 48.4964 155.112 48.6109 155.646 48.5977C156.174 48.622 156.696 48.4755 157.135 48.1799C157.318 48.0501 157.467 47.8765 157.566 47.6748C157.666 47.4732 157.713 47.2499 157.705 47.0251C157.719 46.694 157.627 46.367 157.441 46.0927C157.261 45.839 157.021 45.6335 156.743 45.4944C156.445 45.3278 156.133 45.188 155.81 45.0766C155.467 44.9563 155.124 44.831 154.78 44.7007C154.451 44.5644 154.138 44.3918 153.848 44.1861C153.559 43.9824 153.321 43.7162 153.15 43.4073C152.969 43.0301 152.883 42.6146 152.899 42.1967C152.886 41.7235 153.017 41.2574 153.275 40.8605C153.531 40.4853 153.888 40.1909 154.305 40.0119C154.773 39.8011 155.282 39.6966 155.794 39.7057C156.367 39.695 156.934 39.819 157.45 40.0677C157.926 40.2965 158.344 40.6295 158.674 41.042L157.976 41.74C157.707 41.4104 157.376 41.1364 157.002 40.9333C156.618 40.7405 156.193 40.645 155.763 40.6551C155.287 40.6308 154.816 40.7682 154.427 41.045C154.263 41.1726 154.132 41.3378 154.046 41.5266C153.959 41.7154 153.919 41.9223 153.929 42.1299C153.914 42.4416 154.002 42.7496 154.179 43.0064C154.369 43.2399 154.607 43.4297 154.877 43.5629C155.179 43.7158 155.49 43.8491 155.809 43.9617C156.152 44.0728 156.496 44.1981 156.839 44.3377C157.173 44.471 157.486 44.6488 157.772 44.8662C158.064 45.0833 158.302 45.364 158.47 45.6869C158.66 46.076 158.751 46.5064 158.734 46.9394C158.752 47.3056 158.685 47.671 158.538 48.0067C158.391 48.3425 158.167 48.6394 157.885 48.8739C157.23 49.3614 156.425 49.6047 155.61 49.562L155.604 49.56Z" fill="black"/>
<path d="M19.3589 39.6162H11.7373V49.5632H19.3589V39.6162Z" fill="#0073EC"/>
<path d="M30.2446 30.832H22.623V49.5633H30.2446V30.832Z" fill="#0073EC"/>
<path d="M32.6519 19.8602L36.4631 17.0361L40.2744 19.8602V49.5626H32.6519V19.8602Z" fill="#0073EC"/>
</svg>
