<svg width="22" height="17" viewBox="0 0 22 17" fill="none" xmlns="http://www.w3.org/2000/svg">
<path d="M21.7836 13.5692C21.669 14.1887 21.4309 14.7474 20.9977 15.2161C20.4219 15.8403 19.7084 16.167 18.8658 16.2237C18.7915 16.2284 18.7164 16.2271 18.6421 16.2271C13.7854 16.2271 8.92882 16.2319 4.0722 16.2237C2.74735 16.2216 1.78272 15.6029 1.19738 14.4138C1.01592 14.0454 0.926548 13.6477 0.926548 13.2342C0.925865 10.6228 0.925183 8.01128 0.925865 5.39979C0.925865 5.3343 0.897895 5.2463 0.958611 5.20878C1.03229 5.16375 1.09642 5.24016 1.15713 5.277C4.3021 7.19263 7.44843 9.10622 10.5893 11.0287C11.1153 11.3507 11.6072 11.3514 12.1331 11.0294C15.274 9.1069 18.4204 7.19331 21.5653 5.27768C21.6335 5.23606 21.6943 5.17535 21.7843 5.18217C21.7836 7.97785 21.7836 10.7735 21.7836 13.5692Z" fill="white"/>
<path d="M11.3702 0.813837C13.8132 0.813837 16.2555 0.810426 18.6985 0.815201C20.0636 0.81793 21.2397 1.6932 21.6565 2.98871C21.7152 3.17154 21.6947 3.27319 21.516 3.38234C18.1957 5.40372 14.8795 7.43123 11.5647 9.46216C11.418 9.55221 11.3095 9.55494 11.1608 9.46421C7.84119 7.42987 4.51885 5.39826 1.1931 3.37279C1.0321 3.27455 1.00685 3.18041 1.05938 3.01122C1.45779 1.71981 2.64892 0.819294 4.00106 0.815883C6.45768 0.809743 8.91362 0.813837 11.3702 0.813837Z" fill="white"/>
</svg>
