<svg width="25" height="25" viewBox="0 0 25 25" fill="none" xmlns="http://www.w3.org/2000/svg">
<path d="M13.1555 0.849609C13.8895 0.969674 14.6142 1.12997 15.2882 1.45426C17.5985 2.56393 18.9829 4.37913 19.4415 6.90667C19.6891 8.2707 19.3295 9.52704 18.8146 10.7611C18.0639 12.559 17.0799 14.2312 16.0352 15.8688C14.9447 17.5775 13.7799 19.2349 12.5533 20.849C12.3676 21.0928 12.3646 21.0941 12.1801 20.8484C10.3185 18.3747 8.55529 15.8347 7.06316 13.1172C6.43003 11.9642 5.86127 10.7815 5.47199 9.51776C4.96512 7.86966 5.2102 6.29211 5.97453 4.79997C7.12628 2.55217 8.98604 1.25003 11.4894 0.878078C11.5192 0.873746 11.5476 0.859512 11.5767 0.850228C12.1034 0.849609 12.6294 0.849609 13.1555 0.849609ZM12.3485 10.3161C13.6562 10.3235 14.7114 9.29124 14.7188 7.99715C14.7262 6.70305 13.6778 5.64414 12.385 5.63857C11.0822 5.633 10.0196 6.67397 10.0146 7.96063C10.0091 9.26154 11.0469 10.3087 12.3485 10.3161Z" fill="white"/>
<path d="M24.2488 19.2311C23.909 20.8953 22.7665 21.8935 21.3715 22.6696C19.8744 23.5027 18.2449 23.9489 16.5714 24.2565C14.7383 24.5931 12.8872 24.7002 11.0299 24.6167C8.54694 24.5046 6.1308 24.0677 3.87929 22.9518C2.88659 22.4598 1.9793 21.844 1.2979 20.9504C0.13625 19.4273 0.177716 17.7507 1.40373 16.2784C2.10927 15.4305 3.01099 14.8376 3.97336 14.3264C4.21905 14.1958 4.47775 14.0906 4.72531 13.9637C4.85342 13.8987 4.92026 13.934 4.97967 14.0553C5.29283 14.6946 5.62146 15.3259 6.01074 15.9225C6.10605 16.0686 6.01878 16.1088 5.90986 16.1552C5.41784 16.3638 4.93944 16.5983 4.47837 16.8688C4.04948 17.1207 3.64844 17.4078 3.31115 17.7773C2.75848 18.3832 2.7591 18.9625 3.31176 19.5647C3.69362 19.9806 4.15283 20.2931 4.64485 20.5586C6.0225 21.3013 7.51092 21.7005 9.04453 21.9554C10.5002 22.1974 11.9682 22.2544 13.4368 22.1819C15.7168 22.0693 17.9355 21.6695 19.9908 20.6087C20.5082 20.3414 20.994 20.0239 21.392 19.5913C21.5974 19.3679 21.7794 19.1265 21.8239 18.8127C21.8809 18.4086 21.7002 18.0905 21.4421 17.807C20.9426 17.2575 20.3058 16.9078 19.643 16.6014C19.3769 16.4783 19.1021 16.3724 18.8273 16.2679C18.6837 16.2134 18.6509 16.1484 18.7394 16.0116C19.1138 15.433 19.4338 14.8234 19.7383 14.2063C19.8027 14.0764 19.8689 14.0139 20.0236 14.0788C21.0287 14.4991 21.9787 15.0084 22.795 15.7412C23.5277 16.3997 24.0519 17.1832 24.2481 18.1635C24.2487 18.5194 24.2488 18.8752 24.2488 19.2311Z" fill="white"/>
</svg>
