<svg width="18" height="18" viewBox="0 0 18 18" fill="none" xmlns="http://www.w3.org/2000/svg">
<path d="M0.0031147 10.4522C0.0031147 11.9992 0.00205421 13.5467 0.00364113 15.0937C0.00469971 16.2598 0.821571 17.0756 1.98763 17.0772C2.99919 17.0782 4.01076 17.0782 5.02233 17.0772C5.85454 17.0766 6.37937 16.5481 6.3799 15.7106C6.38043 14.626 6.37937 13.542 6.38043 12.4574C6.38096 11.9183 6.61745 11.6813 7.15498 11.6807C8.11364 11.6802 9.0723 11.6797 10.031 11.6807C10.5574 11.6813 10.7955 11.9188 10.796 12.4452C10.797 13.5425 10.7955 14.6403 10.7965 15.7376C10.7976 16.5433 11.3325 17.0756 12.1414 17.0766C13.1731 17.0777 14.2042 17.0788 15.2359 17.0761C16.3379 17.0729 17.1712 16.2439 17.1722 15.145C17.1738 12.005 17.1707 8.86453 17.1738 5.72402C17.1744 5.20712 16.9585 4.8172 16.522 4.55479C14.0973 3.09617 11.6721 1.63913 9.24371 0.187911C8.78078 -0.0887888 8.31256 -0.0469929 7.8544 0.228649C6.1323 1.26455 4.40862 2.29728 2.68493 3.33107C2.02731 3.72575 1.37127 4.12308 0.712057 4.51405C0.232197 4.79869 -0.00323486 5.20607 -6.10352e-05 5.77163C0.00893402 7.33131 0.0031147 8.89204 0.0031147 10.4522Z" fill="white"/>
</svg>
