<svg width="14" height="12" viewBox="0 0 14 12" fill="none" xmlns="http://www.w3.org/2000/svg">
<path d="M6.99808 2.03464C5.01949 2.03464 3.0409 2.03568 1.06178 2.03361C0.505078 2.03309 0.084432 1.68005 0.0106891 1.16367C-0.0744786 0.570786 0.35915 0.0404473 0.959998 0.00219682C0.998947 0.000129225 1.0379 0.000129225 1.07684 0.000129225C5.02105 0.000129225 8.96577 -0.000387674 12.91 0.000646124C13.4677 0.000646124 13.8889 0.332495 13.9766 0.832336C14.0893 1.47277 13.6214 2.02999 12.9536 2.03258C11.7467 2.03826 10.5403 2.03413 9.33344 2.03464C8.55499 2.03464 7.77653 2.03464 6.99808 2.03464Z" fill="url(#paint0_linear_1598_1390)"/>
<path d="M7.01752 9.92485C8.98313 9.92485 10.9487 9.92382 12.9149 9.92537C13.4866 9.92589 13.9088 10.2743 13.9826 10.7989C14.0662 11.3913 13.631 11.9201 13.0291 11.9568C12.9839 11.9594 12.9382 11.9589 12.8931 11.9589C8.96132 11.9589 5.0301 11.9594 1.09836 11.9583C0.526077 11.9583 0.102316 11.6291 0.0155899 11.123C-0.0913891 10.4991 0.36457 9.93881 1.00385 9.92744C1.57458 9.9171 2.14582 9.92434 2.71655 9.92434C4.14986 9.92485 5.58369 9.92485 7.01752 9.92485Z" fill="url(#paint1_linear_1598_1390)"/>
<path d="M6.97694 6.99618C5.99024 6.99618 5.00406 7.00187 4.01736 6.9936C3.60035 6.98998 3.27993 6.79511 3.09921 6.41467C2.91953 6.0363 2.96886 5.67085 3.22644 5.34107C3.4217 5.09089 3.69123 4.9658 4.00541 4.96477C6.00426 4.96064 8.00311 4.95857 10.002 4.96529C10.5706 4.96735 11.0183 5.43205 11.0162 5.98306C11.0141 6.53408 10.5654 6.98895 9.99416 6.9936C8.98877 7.00187 7.98285 6.99618 6.97694 6.99618Z" fill="url(#paint2_linear_1598_1390)"/>
<defs>
<linearGradient id="paint0_linear_1598_1390" x1="-0.277782" y1="0.478744" x2="0.487185" y2="4.29497" gradientUnits="userSpaceOnUse">
<stop stop-color="#0073EC"/>
<stop offset="1" stop-color="#2E93FF"/>
</linearGradient>
<linearGradient id="paint1_linear_1598_1390" x1="-0.277771" y1="10.401" x2="0.4883" y2="14.2198" gradientUnits="userSpaceOnUse">
<stop stop-color="#0073EC"/>
<stop offset="1" stop-color="#2E93FF"/>
</linearGradient>
<linearGradient id="paint2_linear_1598_1390" x1="2.8329" y1="5.44004" x2="4.07112" y2="8.97943" gradientUnits="userSpaceOnUse">
<stop stop-color="#0073EC"/>
<stop offset="1" stop-color="#2E93FF"/>
</linearGradient>
</defs>
</svg>
