<svg width="24" height="20" viewBox="0 0 24 20" fill="none" xmlns="http://www.w3.org/2000/svg">
<path d="M10.9317 14.2813C9.77899 14.2827 9.00602 13.1897 9.38043 12.0873C9.86554 10.6588 10.3668 9.23563 10.8626 7.81115C11.3994 6.26724 11.9261 4.71998 12.4783 3.18211C12.8916 2.03139 14.3195 1.72408 15.1904 2.58091C15.3279 2.71645 15.4635 2.85333 15.5997 2.98954C16.0861 3.47532 16.5753 3.95909 17.0564 4.45024C17.1698 4.56565 17.2523 4.58243 17.361 4.45293C17.4415 4.35698 17.5321 4.26774 17.6267 4.18588C17.9065 3.945 18.1178 3.71553 17.989 3.27604C17.8924 2.94659 18.0722 2.6158 18.3185 2.3662C18.9841 1.69187 19.6517 1.01889 20.3287 0.356637C20.8118 -0.115728 21.5653 -0.119083 22.0585 0.347914C22.4604 0.728356 22.8509 1.12088 23.2327 1.52145C23.6876 1.99918 23.6936 2.73322 23.2347 3.20693C22.5691 3.89267 21.8894 4.56498 21.2083 5.23595C20.8688 5.5701 20.4522 5.65531 19.9992 5.5332C19.8671 5.49763 19.7819 5.51374 19.6899 5.61237C19.5007 5.81433 19.3075 6.01361 19.1028 6.1988C18.9753 6.31421 18.9908 6.38734 19.1055 6.50007C19.7208 7.10596 20.3307 7.71789 20.9393 8.33048C21.8666 9.26314 21.5385 10.6836 20.2918 11.1184C17.4194 12.1208 14.5463 13.1206 11.6731 14.1196C11.4276 14.2042 11.182 14.2941 10.9317 14.2813ZM21.201 0.853828C21.0788 0.859196 20.9822 0.920925 20.897 1.00614C20.2569 1.64558 19.6155 2.28367 18.9794 2.92714C18.7915 3.11769 18.7875 3.31563 18.9693 3.50283C19.331 3.87522 19.698 4.24359 20.0717 4.6039C20.2629 4.78842 20.4314 4.78774 20.6233 4.59786C21.2734 3.95708 21.9196 3.31093 22.5604 2.66076C22.759 2.45947 22.7549 2.27025 22.5563 2.06493C22.2061 1.70395 21.8471 1.35236 21.4915 0.996745C21.4116 0.917571 21.3157 0.871273 21.201 0.853828ZM16.0875 7.85946C16.2472 7.85342 16.3532 7.74271 16.4592 7.63603C17.2469 6.84965 18.034 6.06192 18.821 5.27487C19.1719 4.92395 19.1652 4.93066 18.815 4.56834C18.6754 4.42408 18.5922 4.43079 18.4547 4.57035C17.6025 5.43456 16.741 6.28938 15.8835 7.14823C15.8419 7.18983 15.801 7.2321 15.7674 7.27974C15.6889 7.39112 15.6728 7.51055 15.7406 7.63334C15.8144 7.76754 15.9251 7.84738 16.0875 7.85946Z" fill="white"/>
<path d="M5.65154 19.3654C4.21834 19.3654 2.78514 19.3661 1.35194 19.3654C0.532682 19.3647 0.0146903 18.8528 0.00798056 18.0369C0.0046257 17.6766 -7.11172e-05 17.3156 0.00999348 16.9559C0.0287807 16.2561 0.47632 15.777 1.17078 15.7046C1.3204 15.6891 1.47137 15.6797 1.62167 15.6797C4.32905 15.6784 7.03643 15.6791 9.74313 15.6777C9.96992 15.6777 10.1981 15.6824 10.4181 15.7341C10.9475 15.8589 11.3293 16.3433 11.3454 16.911C11.3568 17.3216 11.3595 17.7329 11.3447 18.1429C11.3199 18.8575 10.7919 19.362 10.0766 19.3641C8.60248 19.3674 7.12701 19.3654 5.65154 19.3654Z" fill="white"/>
<path d="M17.7577 19.3654C16.3157 19.3654 14.8745 19.366 13.4326 19.3654C12.6012 19.3647 12.0906 18.8521 12.0859 18.0147C12.0839 17.6792 12.0826 17.3444 12.0866 17.0089C12.096 16.2615 12.5314 15.7817 13.2715 15.7025C13.4212 15.6864 13.5721 15.6797 13.7231 15.6797C16.405 15.6784 19.0875 15.6784 21.7694 15.6797C21.9452 15.6797 22.121 15.6905 22.2961 15.7072C22.9382 15.7676 23.4039 16.2574 23.424 16.9089C23.4368 17.3189 23.4374 17.7309 23.424 18.1408C23.3999 18.8554 22.8725 19.3627 22.1579 19.364C20.6912 19.3674 19.2244 19.3654 17.7577 19.3654Z" fill="white"/>
<path d="M3.60306 8.4373C3.8795 8.45609 4.15594 8.48158 4.41293 8.59297C4.53773 8.64731 4.59946 8.62249 4.66924 8.50037C5.17716 7.61401 5.95885 7.19935 6.96732 7.26444C7.92212 7.3255 8.62865 7.7992 9.02654 8.68355C9.10974 8.86941 9.24058 8.86135 9.39222 8.86605C9.72905 8.87612 9.74515 8.8996 9.63578 9.21697C9.51031 9.58131 9.37276 9.94162 9.25869 10.3093C9.19763 10.5059 9.10638 10.5549 8.89503 10.5368C8.27773 10.4831 7.65641 10.4797 7.03911 10.5408C6.56071 10.5878 6.1588 10.8058 5.83673 11.1588C5.71327 11.2943 5.63812 11.2836 5.5207 11.1541C5.10604 10.6978 4.57329 10.5106 3.9674 10.5093C3.12935 10.5073 2.29131 10.5099 1.45326 10.5079C1.18689 10.5073 1.16541 10.475 1.2352 10.212C1.50157 9.21026 2.51139 8.45273 3.60306 8.4373Z" fill="white"/>
<path d="M2.67073 14.9369C2.20977 14.9369 1.74948 14.9396 1.28852 14.9362C0.572593 14.9315 0.0418532 14.433 0.0123304 13.7218C-0.00444391 13.3118 -0.00377294 12.9005 0.0123304 12.4905C0.0391693 11.8155 0.48805 11.323 1.15701 11.2821C2.18494 11.219 3.21623 11.2163 4.24483 11.2868C4.82455 11.3264 5.28551 11.8544 5.30631 12.4711C5.3204 12.8898 5.32241 13.3091 5.30564 13.7271C5.27746 14.4303 4.75141 14.9309 4.05226 14.9362C3.59264 14.9396 3.13168 14.9369 2.67073 14.9369Z" fill="white"/>
<path d="M20.57 14.9367C20.0506 14.9367 19.5306 14.9387 19.0113 14.936C18.2712 14.932 17.7445 14.4187 17.723 13.6799C17.717 13.4706 17.7297 13.2606 17.719 13.0519C17.7096 12.8701 17.7888 12.7835 17.9579 12.7265C18.751 12.4574 19.54 12.1756 20.3318 11.9025C20.7142 11.7704 21.0866 11.6241 21.3946 11.3497C21.4308 11.3174 21.4778 11.2913 21.5241 11.2758C22.4715 10.9545 23.4223 11.6214 23.4276 12.6111C23.4297 12.9546 23.4317 13.2982 23.427 13.6417C23.4169 14.4194 22.9009 14.9327 22.1293 14.9373C22.1125 14.9373 22.0958 14.9373 22.079 14.9373C21.5758 14.9367 21.0732 14.9367 20.57 14.9367Z" fill="white"/>
<path d="M10.0259 14.937C9.54882 14.937 9.09726 14.937 8.64637 14.937C8.20218 14.937 7.758 14.9396 7.31314 14.9363C6.60258 14.9303 6.0752 14.4217 6.0497 13.7064C6.03561 13.3125 6.03829 12.918 6.04903 12.5248C6.06782 11.8277 6.51804 11.3506 7.21384 11.2755C7.68218 11.2251 8.15186 11.2614 8.62087 11.252C8.81143 11.248 8.84766 11.3325 8.78794 11.5049C8.66784 11.8518 8.5276 12.194 8.53029 12.5738C8.53767 13.5709 8.97581 14.3042 9.85076 14.78C9.90578 14.8095 9.98026 14.8169 10.0259 14.937Z" fill="white"/>
<path d="M11.814 14.8719C12.0421 14.7887 12.2649 14.7035 12.4896 14.6257C13.8826 14.1419 15.2755 13.6581 16.6685 13.1763C16.967 13.073 16.9758 13.0858 16.9872 13.3931C17.006 13.8715 16.9321 14.313 16.5416 14.6458C16.337 14.8202 16.1035 14.9323 15.8344 14.933C14.5354 14.9377 13.2364 14.9356 11.9374 14.9356C11.8985 14.9356 11.8536 14.9424 11.814 14.8719Z" fill="white"/>
</svg>
